<svg viewBox="0 0 45 40" version="1.1" xmlns="http://www.w3.org/2000/svg" id="Layer_1">
  
  <path d="M39.22,10.2c-.03-1.66-.06-3.38-.02-5.08v-.15s-.15,0-.15,0c-5.72.32-10.69-1.74-16.39-4.93l-.07-.04-.07.05c-3.71,2.45-9.58,5.3-16.56,4.92h-.15s0,.15,0,.15c.08,2.01.04,4.05-.01,6.03-.11,4.84-.23,9.85,1.61,14.6,2.18,5.64,6.68,8.74,11.44,12.02,1.02.7,2.08,1.43,3.1,2.18l.07.05.08-.05c6.62-3.82,12.77-7.79,15.34-14.38,1.96-5.01,1.87-10.28,1.78-15.38ZM8.34,6.94c4.66.06,9.72-1.46,14.63-4.39,3.62,2.61,8.6,4.2,13.71,4.38-.03,1.46,0,2.95.01,4.4.08,5.04.16,10.25-2.14,14.87-2.15,4.3-5.66,6.74-9.38,9.33-.8.55-1.62,1.13-2.44,1.72l-.5.04-.59-.38c-4.16-2.66-8.87-5.67-11.18-10.15-2.39-4.64-2.27-9.44-2.15-14.51.04-1.74.09-3.53.02-5.31Z"></path>
</svg>