<?xml version="1.0" standalone="no"?>
<!DOCTYPE svg PUBLIC "-//W3C//DTD SVG 20010904//EN"
 "http://www.w3.org/TR/2001/REC-SVG-20010904/DTD/svg10.dtd">
<svg version="1.0" xmlns="http://www.w3.org/2000/svg"
 width="512.000000pt" height="512.000000pt" viewBox="0 0 512.000000 512.000000"
 preserveAspectRatio="xMidYMid meet">

<g transform="translate(0.000000,512.000000) scale(0.100000,-0.100000)"
fill="#000000" stroke="none">
<path d="M1282 4745 c-99 -18 -220 -59 -317 -108 -275 -137 -486 -381 -584
-673 -60 -178 -73 -340 -46 -551 44 -332 128 -608 279 -918 131 -267 277 -475
475 -679 318 -325 709 -562 1185 -716 71 -23 142 -42 157 -42 42 -1 216 53
239 74 29 27 35 64 16 94 -32 47 -56 50 -156 19 l-91 -27 -62 17 c-119 33
-333 117 -482 190 -611 300 -1054 799 -1274 1438 -108 314 -161 664 -132 867
63 426 380 765 796 851 377 78 781 -72 1004 -373 114 -153 109 -148 145 -148
42 0 53 10 111 98 97 146 238 267 408 347 158 75 223 89 427 89 192 0 253 -11
403 -74 292 -121 522 -406 589 -729 43 -206 -2 -565 -111 -886 -43 -125 -41
-154 11 -181 31 -16 62 -12 91 14 25 22 103 274 137 442 68 339 66 553 -6 775
-133 408 -488 716 -908 790 -112 19 -298 19 -407 0 -251 -44 -480 -170 -660
-364 l-82 -88 -111 112 c-151 152 -284 238 -467 299 -162 54 -407 72 -577 41z"/>
<path d="M4105 2559 c-288 -33 -563 -113 -809 -236 -145 -72 -208 -116 -291
-205 -85 -90 -128 -161 -166 -270 -59 -175 -61 -394 -3 -615 21 -84 40 -136
106 -293 9 -22 2 -39 -50 -134 -65 -117 -162 -341 -162 -376 0 -55 96 -93 133
-52 8 9 39 73 69 142 29 69 70 155 91 192 l38 68 54 -44 c178 -145 424 -215
665 -187 285 32 498 145 669 355 219 268 332 630 348 1116 6 192 -9 441 -29
484 -14 33 -45 44 -153 56 -104 11 -407 11 -510 -1z m522 -162 c16 -17 8 -504
-10 -632 -67 -453 -225 -759 -481 -930 -142 -94 -269 -130 -461 -129 -200 1
-341 53 -495 183 l-34 29 58 78 c83 111 293 317 406 396 52 38 152 96 222 130
100 50 130 69 139 91 24 57 -28 116 -93 103 -55 -10 -267 -122 -367 -194 -110
-78 -311 -269 -391 -371 -30 -38 -58 -70 -62 -70 -11 -1 -78 222 -94 319 -19
113 -14 275 12 360 56 187 170 311 378 414 235 116 483 189 761 225 85 11 500
9 512 -2z"/>
</g>
</svg>
