<?xml version="1.0" standalone="no"?>
<!DOCTYPE svg PUBLIC "-//W3C//DTD SVG 20010904//EN"
 "http://www.w3.org/TR/2001/REC-SVG-20010904/DTD/svg10.dtd">
<svg version="1.0" xmlns="http://www.w3.org/2000/svg"
 width="512.000000pt" height="512.000000pt" viewBox="0 0 512.000000 512.000000"
 preserveAspectRatio="xMidYMid meet">

<g transform="translate(0.000000,512.000000) scale(0.100000,-0.100000)"
fill="#000000" stroke="none">
<path d="M1812 5105 c-123 -28 -209 -100 -264 -220 -29 -65 -36 -74 -68 -84
-62 -18 -115 -65 -193 -170 l-75 -100 -15 62 c-41 162 -101 227 -209 227 -62
0 -113 -34 -181 -118 -32 -40 -72 -79 -89 -88 -17 -9 -76 -20 -132 -25 -120
-11 -176 -35 -212 -88 -36 -55 -40 -111 -14 -220 25 -105 24 -130 -6 -411 -20
-189 -13 -268 33 -351 55 -102 170 -185 288 -210 73 -15 109 -7 131 26 28 43
0 99 -54 110 -141 29 -220 87 -249 184 -15 52 -15 68 2 231 30 288 30 320 4
437 -29 132 -28 133 103 144 156 12 219 46 314 170 70 91 94 79 129 -71 32
-136 69 -185 139 -185 60 0 100 34 202 171 91 121 98 128 155 138 47 8 78 43
127 142 23 45 55 93 72 108 51 43 128 60 245 53 162 -9 265 -44 403 -138 111
-76 120 -79 263 -73 107 5 129 3 159 -13 55 -29 75 -74 75 -168 0 -137 -9
-148 -135 -160 -146 -14 -243 -58 -325 -147 -75 -81 -107 -151 -113 -247 -9
-152 65 -287 290 -532 73 -79 145 -160 159 -179 52 -70 110 -178 178 -332 98
-224 161 -319 248 -379 72 -50 117 -61 280 -69 84 -5 161 -11 173 -15 32 -10
47 -53 55 -155 8 -105 23 -151 62 -193 41 -42 82 -49 209 -35 199 21 267 -11
452 -214 177 -194 221 -273 188 -336 -9 -18 -27 -39 -40 -48 -23 -14 -27 -14
-63 4 -21 11 -79 57 -128 102 -184 168 -268 197 -355 124 -95 -80 -98 -212
-10 -454 103 -287 95 -242 74 -376 -5 -35 -2 -45 17 -63 75 -69 158 31 147
176 -4 50 -22 111 -67 230 -66 174 -95 290 -86 335 13 57 28 50 167 -74 120
-108 173 -142 237 -158 74 -18 123 0 187 66 63 64 90 137 79 209 -15 102 -107
235 -290 420 -100 102 -132 128 -196 159 -103 51 -182 63 -311 49 -56 -7 -105
-10 -109 -7 -4 2 -10 43 -14 92 -3 48 -11 106 -17 130 -15 59 -60 117 -109
142 -43 23 -164 40 -279 40 -152 0 -223 58 -316 257 -190 404 -220 451 -414
658 -268 286 -310 424 -175 573 51 57 104 80 231 97 68 10 126 24 154 38 84
43 128 158 116 302 -8 105 -32 162 -90 220 -72 72 -130 89 -284 83 l-117 -5
-80 55 c-99 68 -178 105 -286 132 -109 28 -289 35 -377 15z"/>
<path d="M1118 3692 c-63 -23 -136 -76 -148 -108 -19 -49 15 -104 65 -104 11
0 44 16 73 37 37 25 67 37 101 41 102 9 145 -39 311 -348 112 -209 170 -297
276 -415 49 -55 134 -156 188 -225 144 -181 322 -356 421 -414 110 -64 215
-96 350 -106 145 -10 189 -24 246 -80 47 -46 69 -92 133 -272 32 -88 89 -161
139 -176 17 -6 61 -13 97 -16 160 -15 272 -127 287 -289 8 -84 -18 -144 -97
-222 l-59 -58 -30 26 c-35 29 -94 42 -153 32 -24 -4 -116 -32 -204 -61 -144
-48 -170 -54 -245 -54 -46 0 -115 5 -154 11 -102 15 -263 14 -313 -1 -53 -17
-114 -68 -137 -117 -26 -55 -24 -158 4 -216 43 -89 132 -146 314 -201 93 -28
90 -26 246 -170 197 -180 398 -235 511 -139 68 57 88 144 72 303 -10 87 -9 98
9 130 10 19 35 68 55 108 l36 72 33 -29 c87 -76 259 -99 367 -49 66 31 87 62
72 106 -5 14 -21 33 -36 42 -23 12 -32 13 -60 1 -73 -29 -105 -33 -164 -21
-39 8 -67 21 -86 40 -46 46 -38 73 42 156 82 84 118 154 126 246 23 249 -153
466 -407 502 -99 14 -99 14 -154 175 -46 133 -81 196 -145 255 -70 66 -140 95
-252 107 -178 19 -233 30 -297 59 -142 67 -250 167 -462 430 -68 85 -154 186
-190 225 -89 96 -132 162 -250 382 -114 212 -168 293 -234 351 -80 70 -195 91
-297 54z m2262 -2876 c0 -71 -21 -142 -66 -218 -60 -101 -65 -130 -52 -255 17
-168 0 -203 -95 -189 -66 10 -158 70 -279 184 -60 56 -121 108 -136 116 -15 7
-72 28 -127 46 -185 61 -228 93 -228 171 0 81 51 95 268 72 231 -24 306 -16
505 51 199 67 210 68 210 22z"/>
<path d="M1197 2286 c-69 -25 -91 -58 -110 -164 l-12 -67 -80 -6 c-89 -7 -113
-16 -144 -55 -29 -37 -27 -97 5 -201 29 -90 29 -128 8 -518 -7 -129 3 -180 47
-230 39 -44 87 -58 180 -53 58 3 92 12 154 40 55 24 101 37 147 41 137 12 194
77 205 235 7 81 -11 522 -26 662 -12 116 -43 191 -100 250 -69 72 -181 99
-274 66z m157 -159 c55 -37 70 -115 86 -462 13 -288 13 -364 -1 -404 -12 -34
-20 -37 -112 -45 -38 -3 -85 -17 -136 -41 -62 -29 -86 -36 -126 -33 l-50 3 1
100 c0 55 4 188 8 295 7 189 7 197 -17 278 l-25 82 42 0 c61 0 112 17 151 51
35 31 49 63 60 139 4 25 10 49 12 54 8 12 80 1 107 -17z"/>
</g>
</svg>
