<?xml version="1.0" standalone="no"?>
<!DOCTYPE svg PUBLIC "-//W3C//DTD SVG 20010904//EN"
 "http://www.w3.org/TR/2001/REC-SVG-20010904/DTD/svg10.dtd">
<svg version="1.0" xmlns="http://www.w3.org/2000/svg"
 width="512.000000pt" height="512.000000pt" viewBox="0 0 512.000000 512.000000"
 preserveAspectRatio="xMidYMid meet">

<g transform="translate(0.000000,512.000000) scale(0.100000,-0.100000)"
fill="#000000" stroke="none">
<path d="M2445 4419 c-44 -4 -122 -18 -172 -29 -96 -22 -133 -47 -133 -91 0
-39 -49 -150 -94 -214 -81 -112 -210 -199 -352 -235 -58 -15 -110 -20 -210
-20 l-132 0 -30 -34 c-17 -19 -47 -65 -68 -101 -46 -84 -134 -293 -134 -321 0
-26 14 -39 113 -104 93 -60 206 -170 266 -259 63 -92 127 -234 153 -337 30
-119 32 -331 4 -449 -51 -223 -177 -425 -348 -560 -100 -79 -107 -94 -73 -159
67 -128 272 -367 400 -466 l56 -43 92 24 c130 34 279 32 393 -4 138 -45 256
-136 337 -259 39 -60 72 -78 107 -62 10 5 42 43 72 84 87 122 225 216 368 251
90 22 251 17 343 -11 78 -23 79 -23 114 -5 49 27 211 182 285 273 96 119 168
235 168 270 0 26 -11 40 -72 90 -183 149 -287 305 -354 527 -26 83 -28 103
-28 265 0 162 2 182 28 265 33 110 81 213 137 297 61 90 190 215 291 281 55
36 90 66 93 80 10 41 -115 322 -184 414 l-37 48 -159 6 c-177 7 -225 18 -340
77 -87 45 -198 154 -242 237 -17 33 -39 89 -49 125 -10 36 -24 73 -32 82 -18
22 -158 54 -291 68 -115 11 -169 11 -286 -1z m279 -139 c51 -6 114 -16 141
-23 46 -11 49 -15 65 -62 78 -228 255 -395 505 -475 53 -17 103 -24 206 -27
l136 -5 41 -77 c22 -42 52 -104 65 -138 l25 -62 -66 -48 c-206 -146 -368 -382
-438 -638 -26 -92 -28 -114 -28 -285 0 -171 2 -193 28 -285 56 -205 156 -376
308 -527 l98 -97 -74 -98 c-85 -112 -259 -288 -279 -280 -89 34 -316 41 -430
14 -140 -34 -268 -107 -374 -214 l-63 -62 -27 35 c-16 19 -55 56 -88 83 -196
159 -443 214 -695 155 l-65 -15 -116 118 c-63 65 -139 151 -167 192 l-51 73
92 92 c452 446 463 1158 25 1606 -67 69 -181 163 -209 172 -14 5 38 134 89
224 l35 62 131 5 c154 5 218 21 341 82 103 50 179 109 248 192 50 60 122 195
133 250 6 28 11 32 63 43 136 28 261 35 395 20z"/>
</g>
</svg>
