<svg viewBox="0 0 45 40" version="1.1" xmlns="http://www.w3.org/2000/svg" id="Layer_1">
  
  <path d="M5.11,22.32c-.3-.22-2.45.51-2.88-.96-.25-.86-.26-8.49,0-9.28.58-1.77,5.3-.66,7-.96-.21-1.61-1.66-2.7-1.75-4.47C7.32,3.33,11.05,0,14.25,0c4.32,0,7.97,4.65,7.96,8.76l1.87-3.68c.77-1.52,1.89-2.86,3.36-3.72,6.18-3.62,13.29,1.91,8.32,9.76,1.7.3,6.42-.81,7,.96.26.8.25,8.42,0,9.28-.42,1.46-2.88.8-2.88.96v17.68H5.11v-17.68ZM20.44,11.12c-.24-2.42-1.16-6.19-3.22-7.68-4.13-2.98-8.94,1.13-6.46,5.29,2.2,3.71,6.02,2.09,9.68,2.39ZM24.56,11.12c4.23-.25,9.44,1.64,10.52-3.96.28-1.47-.43-3.16-1.7-3.97-4.61-2.93-8.69,3.86-8.82,7.93ZM21.62,19.96c-.1-1.19.48-6.48-.88-6.48H4.52v6.48h17.09ZM40.48,13.48h-16.21c-1.37,0-.79,5.29-.88,6.48h17.09v-6.48ZM21.62,22.32H7.47v15.32h14.15v-15.32ZM37.53,22.32h-14.15v15.32h14.15v-15.32Z"></path>
</svg>