<svg viewBox="0 0 45 40" version="1.1" xmlns="http://www.w3.org/2000/svg" id="Layer_1">
  
  <path d="M39.66,3.84c.38.26,2.3,7.7,2.41,8.81.63,6.16-.91,13.24-4.8,18.13-5.29,6.64-15.35,11.75-23.65,7.9-1.31-.61-2.85-2.49-3.92-2.52-1.62-.05-8.34,5.04-6.63.35l5.45-2.38c-.1-2.29-.72-4.52-.23-6.86,2.16-10.16,20.5-10.57,26.22-18.65.92-1.3,2.6-6.54,5.14-4.78ZM12.41,34.73c.37.98,2.1,1.87,3.01,2.14,11.38,3.34,22.59-6.72,24.13-17.76.59-4.25-.57-7.57-1.07-11.68-2.12,1.9-3.04,4.58-5.48,6.34-8.01,5.75-23.05,5.5-22.41,18.24.04.87-.24,1.07.91.91,2.01-.29,9.88-4.83,12.01-6.19,1.61-1.03,6.42-5.15,7.39-5.35.91-.18,1.72-.32,1.52.92-.21,1.32-.71,1.04-1.39,1.64-5.21,4.57-12.14,8.49-18.62,10.79Z"></path>
  <path d="M17.7.28c4.41-1.2,8.86,1.5,8.7,6.23-.26,7.94-12.55,7.94-12.81,0-.08-2.39,1.75-5.58,4.11-6.23ZM19.99,2.23c-5.27,0-4.95,8.21,0,8.21s5.27-8.21,0-8.21Z"></path>
</svg>