<svg viewBox="0 0 45 40" version="1.1" xmlns="http://www.w3.org/2000/svg" id="Layer_1">
  
  <path d="M33.14,12.04c-1.22.41-3.89,2.24-4.61,3.29-.04.06-.09.07-.07.17l2.2.92c.67-.51,1.44-1.19,2.16-1.63.21-.13.99-.62,1.19-.35.23.31-.81,1.74-1.04,2.03,0,0-.36.48-1.12,1.26-1.53-.91-3.89-2.08-7.17-3.08-4.49-1.36-6.95-2.79-7.51-4.38-.65-1.83.89-4.08,2.29-5.64,1.63-1.82,3.47-3.15,3.49-3.16.36-.26.44-.76.18-1.12-.26-.36-.76-.44-1.12-.18-.08.06-1.99,1.44-3.73,3.38-1.05,1.16-1.82,2.29-2.29,3.35-.64,1.42-.75,2.74-.33,3.92.76,2.16,3.4,3.82,8.56,5.38,2.98.9,5.13,1.95,6.45,2.71-.63.59-1.4,1.26-2.31,1.98-.37.29-.87.59-1.36.53-.27-.27.77-1.71.97-1.99.1-.13.75-.88.75-.88l-2.06-.84c-1.36,1.91-3,3.79-4.51,5.59-4.4,5.26-9.01,10.34-13.4,15.6-.9.93,0,1.58.83.69,6.54-5.36,12.71-11.33,19.38-16.52,1.23-.96,2.57-1.79,3.72-2.85,2.96,2.68,2.07,6.78-.08,9.68-3.42,4.62-9.04,5.89-14.51,6.26-.89.33-.66,1.56.25,1.58.74.02,2-.17,2.77-.28,3.27-.44,6.63-1.42,9.35-3.32,4.3-3,7.71-8.99,4.35-13.94-.27-.4-.62-.74-.91-1.13.93-1.14,2.01-2.41,2.47-3.84.82-2.6-.66-4.04-3.24-3.17"></path>
</svg>