<svg xmlns="http://www.w3.org/2000/svg" fill="none" viewBox="0 0 21 21" height="21" width="21">
<g clip-path="url(#clip0_1721_64)">
<path fill="black" d="M8.69916 0.571193C8.65815 0.579342 8.61715 0.58749 8.57489 0.595886C6.80387 0.952226 5.21658 1.71507 3.85932 2.90908C3.82871 2.93515 3.79809 2.96121 3.76655 2.98807C3.61694 3.11593 3.47581 3.24985 3.33701 3.38941C3.30414 3.42243 3.27127 3.45544 3.2374 3.48945C3.21253 3.51449 3.18767 3.53953 3.16205 3.56533C3.16181 3.53635 3.16157 3.50737 3.16132 3.4775C3.15894 3.20298 3.15598 2.92846 3.15239 2.65395C3.15056 2.51285 3.14895 2.37176 3.14784 2.23065C3.14656 2.06805 3.14432 1.90546 3.14203 1.74286C3.14176 1.69273 3.1415 1.6426 3.14123 1.59095C3.13557 1.25925 3.11904 0.960066 2.89802 0.699366C2.63035 0.477398 2.4584 0.431156 2.10814 0.433886C1.85836 0.460164 1.71543 0.578535 1.54706 0.755763C1.43425 0.929322 1.38818 1.07365 1.38741 1.28047C1.38689 1.34489 1.38689 1.34489 1.38635 1.41061C1.38639 1.4573 1.38643 1.50399 1.38647 1.55209C1.38619 1.6016 1.38591 1.65111 1.38563 1.70212C1.38498 1.83763 1.38471 1.97314 1.38466 2.10865C1.3846 2.19343 1.38443 2.27821 1.38421 2.36299C1.38345 2.65909 1.38312 2.95519 1.38318 3.2513C1.38323 3.52676 1.38237 3.8022 1.38107 4.07766C1.37999 4.3146 1.37956 4.55154 1.37961 4.78848C1.37963 4.9298 1.3794 5.0711 1.37853 5.21242C1.37758 5.37018 1.37796 5.52793 1.37845 5.6857C1.37799 5.73214 1.37753 5.77858 1.37706 5.82642C1.37954 6.13893 1.42694 6.35484 1.63118 6.60145C1.65333 6.61974 1.67548 6.63804 1.69831 6.65689C1.72014 6.67581 1.74198 6.69474 1.76448 6.71424C2.03149 6.87214 2.31893 6.85853 2.61963 6.85785C2.66755 6.85806 2.71547 6.85827 2.76484 6.85848C2.92283 6.85905 3.08081 6.85901 3.2388 6.85892C3.32104 6.85904 3.40327 6.85916 3.48551 6.85931C3.7439 6.85976 4.00229 6.85978 4.26067 6.85953C4.52658 6.85928 4.79248 6.85979 5.05838 6.86066C5.28732 6.86139 5.51624 6.86163 5.74518 6.8615C5.88163 6.86142 6.01808 6.86158 6.15453 6.8621C6.30679 6.86261 6.45902 6.86233 6.61128 6.86185C6.65606 6.86217 6.70083 6.86248 6.74697 6.8628C7.05274 6.8607 7.29603 6.83125 7.54047 6.63125C7.75605 6.36776 7.82616 6.20232 7.81204 5.85948C7.78349 5.63379 7.72135 5.48412 7.544 5.33782C7.30892 5.17587 7.14305 5.11902 6.85551 5.11551C6.81228 5.1149 6.81228 5.1149 6.76817 5.11428C6.67297 5.11298 6.57776 5.11196 6.48256 5.11095C6.41652 5.11011 6.35049 5.10924 6.28445 5.10837C6.11069 5.1061 5.93693 5.10408 5.76316 5.1021C5.58583 5.10004 5.40851 5.09775 5.23118 5.09549C4.88327 5.09108 4.53536 5.08692 4.18744 5.08291C4.23258 5.03109 4.27775 4.97931 4.32293 4.92753C4.34808 4.89869 4.37323 4.86985 4.39914 4.84013C5.82345 3.22834 7.88812 2.33098 10.0145 2.18218C12.1838 2.05265 14.3186 2.79415 15.9601 4.21143C16.1427 4.37357 16.3191 4.54156 16.4921 4.71377C16.5125 4.73399 16.5329 4.7542 16.5539 4.77503C18.0433 6.27317 18.8062 8.41104 18.8403 10.497C18.8006 12.7906 17.8992 14.865 16.2871 16.4853C16.2668 16.5056 16.2466 16.526 16.2258 16.547C14.7277 18.0364 12.5898 18.7993 10.5038 18.8334C8.21024 18.7937 6.13586 17.8924 4.51557 16.2802C4.49519 16.26 4.47481 16.2397 4.45381 16.2189C3.00213 14.7587 2.31177 12.7711 2.18283 10.7558C2.18064 10.7244 2.17845 10.693 2.17619 10.6606C2.17208 10.6014 2.16838 10.5422 2.16518 10.4829C2.14804 10.2442 2.07623 10.0799 1.92389 9.89712C1.70747 9.71437 1.49738 9.60238 1.20836 9.61738C0.953708 9.66529 0.73044 9.77911 0.575506 9.98941C0.229601 10.5919 0.454157 11.6411 0.57807 12.3017C0.58489 12.3381 0.591711 12.3745 0.598738 12.4121C0.950332 14.2221 1.78453 15.8839 3.02747 17.2439C3.08968 17.3122 3.15121 17.3811 3.21204 17.4506C4.60265 19.0346 6.65471 20.0297 8.69916 20.4228C8.74762 20.4328 8.74762 20.4328 8.79706 20.4431C9.8981 20.6663 11.21 20.6511 12.3085 20.4228C12.344 20.4159 12.3795 20.4091 12.416 20.4021C14.2274 20.0513 15.8899 19.2171 17.2508 17.9734C17.319 17.9111 17.3879 17.8496 17.4574 17.7888C19.0415 16.3982 20.0366 14.3461 20.4296 12.3017C20.4363 12.2694 20.4431 12.2371 20.45 12.2038C20.6731 11.1027 20.658 9.79078 20.4296 8.69229C20.4194 8.63907 20.4194 8.63907 20.409 8.58478C20.0581 6.77344 19.224 5.11092 17.9802 3.75006C17.918 3.68179 17.8565 3.61289 17.7957 3.54338C16.405 1.95936 14.353 0.96424 12.3085 0.571193C12.2762 0.564478 12.2439 0.557763 12.2106 0.550845C11.1112 0.328006 9.79586 0.340232 8.69916 0.571193Z"></path>
</g>
<defs>
<clipPath id="clip0_1721_64">
<rect transform="matrix(-1 0 0 1 21 0)" fill="white" height="21" width="21"></rect>
</clipPath>
</defs>
</svg>
