<svg xmlns="http://www.w3.org/2000/svg" fill="none" viewBox="0 0 27 18" height="18" width="27">
<path fill="black" d="M0.913646 0.0198453C0.971406 0.0196166 1.02917 0.0193878 1.08868 0.0191521C1.18411 0.0191663 1.18411 0.0191663 1.28148 0.0191808C1.38267 0.0188978 1.38267 0.0188978 1.48591 0.0186091C1.67348 0.0181408 1.86104 0.0179043 2.04861 0.0177682C2.25079 0.0175679 2.45297 0.0170764 2.65515 0.0166284C3.14358 0.0156143 3.632 0.0150978 4.12043 0.0146413C4.35043 0.0144164 4.58044 0.014141 4.81044 0.0138722C5.57501 0.0129993 6.33958 0.0122556 7.10415 0.011884C7.30257 0.011786 7.50099 0.0116874 7.69941 0.0115871C7.77339 0.0115498 7.77339 0.0115498 7.84886 0.0115119C8.64775 0.011086 9.44663 0.00978592 10.2455 0.00811945C11.0657 0.00642253 11.8859 0.00549838 12.706 0.00533443C13.1666 0.00522334 13.6271 0.00477448 14.0876 0.00346357C14.4798 0.00234971 14.8719 0.00193672 15.2641 0.00243565C15.4642 0.00266883 15.6642 0.00257166 15.8643 0.00157561C16.0814 0.000670011 16.2984 0.00102937 16.5154 0.00170558C16.6099 0.000861318 16.6099 0.000861317 16.7063 0C17.0741 0.0027676 17.3585 0.0421708 17.664 0.231976C17.9251 0.474366 17.9619 0.652605 17.9612 0.980229C17.9612 1.01428 17.9612 1.04834 17.9612 1.08342C17.9612 1.19586 17.9607 1.3083 17.9603 1.42074C17.9602 1.49875 17.9601 1.57676 17.96 1.65476C17.9598 1.86 17.9592 2.06523 17.9586 2.27046C17.958 2.47992 17.9577 2.68938 17.9574 2.89883C17.9568 3.30976 18.0012 3.08908 18 3.5C18.0413 3.49954 18.0372 4.13069 18.0798 4.13022C18.4706 4.12609 18.8613 4.12297 19.2521 4.12096C19.4529 4.11989 19.6538 4.11845 19.8546 4.11611C20.0859 4.11344 20.3171 4.11246 20.5484 4.11155C20.6201 4.11049 20.6917 4.10944 20.7655 4.10834C21.2392 4.10823 21.4849 4.15616 21.8521 4.42428C21.884 4.45284 21.9158 4.48139 21.9485 4.51082C21.9847 4.54303 22.0209 4.57524 22.0582 4.60843C22.1127 4.65813 22.1127 4.65813 22.1683 4.70884C22.2046 4.74119 22.241 4.77353 22.2784 4.80686C22.4571 4.96719 22.6292 5.13048 22.7949 5.30132C23.0636 5.57546 23.3582 5.82709 23.6504 6.08141C24.2697 6.62051 24.2697 6.62051 24.4895 6.84786C24.7714 7.13883 25.0855 7.40324 25.394 7.67204C26.1029 8.28994 26.1029 8.28994 26.4179 8.61593C26.5144 8.71482 26.617 8.80658 26.7235 8.89709C26.9585 9.09717 26.9585 9.09717 26.9712 9.26718C26.9715 9.31172 26.9718 9.35625 26.9721 9.40213C26.9726 9.4532 26.9731 9.50428 26.9737 9.5569C26.974 9.64126 26.974 9.64126 26.9744 9.72733C26.9749 9.78641 26.9754 9.84548 26.9758 9.90635C26.9773 10.1025 26.9783 10.2987 26.9791 10.4949C26.9794 10.5618 26.9797 10.6287 26.98 10.6976C26.9813 10.9787 26.9824 11.2598 26.983 11.5409C26.984 11.9436 26.9859 12.3462 26.9892 12.7489C26.9915 13.0321 26.9926 13.3153 26.9929 13.5985C26.9931 13.7676 26.994 13.9367 26.9957 14.1058C26.9975 14.2946 26.9975 14.4834 26.9971 14.6722C26.9981 14.728 26.999 14.7839 27 14.8414C26.996 15.2644 26.996 15.2644 26.8267 15.4511C26.4231 15.7728 26.0349 15.7477 25.5138 15.7375C25.4464 15.7368 25.3789 15.7361 25.3094 15.7354C25.1438 15.7336 24.9783 15.731 24.8128 15.7278C24.8043 15.7676 24.7959 15.8073 24.7872 15.8482C24.7538 15.9878 24.7025 16.1021 24.6348 16.2313C24.6137 16.2719 24.5927 16.3124 24.571 16.3542C24.5549 16.3846 24.5387 16.4149 24.5222 16.4462C24.4838 16.4462 24.4454 16.4462 24.4059 16.4462C24.4059 16.497 24.4059 16.5478 24.4059 16.6001C24.3676 16.6001 24.3292 16.6001 24.2897 16.6001C24.2717 16.6557 24.2717 16.6557 24.2533 16.7124C24.1675 16.8673 24.0687 16.945 23.9153 17.0493C23.8127 17.1184 23.8127 17.1184 23.6939 17.2383C23.0282 17.786 22.0695 18.0086 21.1768 17.9997C20.1064 17.9236 19.1611 17.4917 18.4631 16.7701C18.2452 16.4975 18.2452 16.4975 17.8383 15.7792C15.134 15.7792 12.4297 15.7792 9.64341 15.7792C9.44203 16.1601 9.44203 16.1601 9.23657 16.5488C9.19821 16.5488 9.15985 16.5488 9.12033 16.5488C9.10115 16.6165 9.08197 16.6843 9.06221 16.7541C9.02385 16.7541 8.94597 16.8567 8.94597 16.8567C8.94597 16.8567 8.86388 16.9651 8.85153 16.9946C8.74145 17.158 8.51005 17.2673 8.51005 17.2673C8.51005 17.2673 8.45745 17.3126 8.42287 17.3443C8.42287 17.3699 8.33569 17.3956 8.33569 17.3956C8.33569 17.3956 8.19041 17.4375 8.19041 17.4724C7.03757 17.9653 6.08302 18.1168 4.83534 17.7901C4.43145 17.6627 4.10815 17.4484 3.77328 17.2159C3.72451 17.1837 3.67574 17.1516 3.62549 17.1184C3.20704 16.8025 2.86349 16.3365 2.669 15.8818C2.669 15.831 2.669 15.7802 2.669 15.7278C2.61127 15.7286 2.55354 15.7295 2.49406 15.7303C2.27841 15.7331 2.06275 15.7348 1.84708 15.7363C1.75401 15.7371 1.66095 15.7381 1.56789 15.7395C1.43356 15.7413 1.29926 15.7422 1.16492 15.7429C1.12379 15.7437 1.08267 15.7445 1.0403 15.7453C0.696022 15.7454 0.427124 15.6768 0.15992 15.4819C0.0321189 15.3458 0.0243668 15.2849 0.0238567 15.1103C0.0231429 15.0579 0.0224292 15.0055 0.0216938 14.9515C0.0222933 14.8652 0.0222933 14.8652 0.0229049 14.7773C0.0224192 14.7161 0.0219335 14.655 0.0214331 14.592C0.0203272 14.4222 0.0202672 14.2525 0.0206525 14.0827C0.0208194 13.8996 0.0196546 13.7165 0.0186675 13.5335C0.0169599 13.1748 0.0165375 12.8161 0.0166087 12.4574C0.016657 12.1658 0.0163168 11.8743 0.0157005 11.5828C0.0138006 10.6664 0.0132793 9.74999 0.0137877 8.83358C0.0141354 8.11047 0.0123688 7.38737 0.00962501 6.66426C0.00683034 5.92196 0.00554634 5.17968 0.0058653 4.43738C0.00601513 4.02056 0.00554921 3.60375 0.00347825 3.18693C0.00172898 2.83206 0.00139142 2.47721 0.00288595 2.12234C0.00360875 1.94125 0.00367542 1.76022 0.00197295 1.57914C0.000147475 1.38286 0.00147223 1.18664 0.00311054 0.990352C0.00208406 0.933092 0.00105759 0.875832 0 0.816836C0.00679862 0.441203 0.0067986 0.441203 0.14141 0.28216C0.38344 0.0919882 0.58882 0.0204415 0.913646 0.0198453ZM1.7972 1.71999C1.7972 2.17717 1.7972 2.63435 1.7972 3.10538V3.28509V3.38772V3.49034V3.59296V3.72124V3.77255V3.87517V3.97779V4.13172V4.31131V4.43738V4.51655V4.59352V4.64483V4.69614V4.74745V4.79864C1.7972 5.25582 1.7972 5.713 1.7972 6.18403V6.31243V6.36374V6.41505V6.51114V6.56899V6.66426V6.72292V6.77423V6.92816V7.03078V7.1334V7.23603V7.33865V7.44127V7.54389V7.64651V7.74913V7.87729C1.7972 9.90919 1.7972 11.9411 1.7972 14.0346C2.04654 14.0346 2.29587 14.0346 2.55276 14.0346C2.56902 13.9893 2.58528 13.944 2.60203 13.8973C2.96333 12.9424 3.56692 12.2953 4.57244 11.8154C5.51861 11.4159 6.51791 11.4378 7.49297 11.7256C8.42529 12.0755 9.11018 12.7017 9.51605 13.5143C9.5891 13.6843 9.64495 13.8598 9.70153 14.0346C11.7921 14.0346 13.8827 14.0346 16.0366 14.0346C16.0558 9.97077 16.075 5.90695 16.0947 1.71999C11.3766 1.71999 6.65837 1.71999 1.7972 1.71999ZM17.9546 5.82485C17.9546 6.77308 17.9546 7.7213 17.9546 8.69826C19.8917 8.69826 21.8289 8.69826 23.8247 8.69826C23.5981 8.43147 23.3916 8.19892 23.1257 7.97029C23.0936 7.94223 23.0615 7.91417 23.0285 7.88527C22.9273 7.79683 22.8257 7.70876 22.7241 7.62073C22.5901 7.50439 22.4564 7.38788 22.3229 7.27118C22.2906 7.24298 22.2584 7.21479 22.2251 7.18574C22.0654 7.04523 21.9109 6.90356 21.7649 6.75165C21.7337 6.72097 21.7025 6.69029 21.6703 6.65868C21.6065 6.59305 21.5439 6.52638 21.4855 6.45692C21.2444 6.17209 20.9906 5.88344 20.5874 5.7875C20.1571 5.73609 19.7309 5.7595 19.2986 5.77996C18.8551 5.79477 18.4116 5.80959 17.9546 5.82485ZM17.9546 10.3915C17.9546 11.3905 17.9546 12.3896 17.9546 13.4189C18.0723 13.2803 18.1776 13.1474 18.2815 13.002C18.8518 12.2523 19.637 11.7465 20.6463 11.5588C21.7004 11.4137 22.6545 11.6099 23.5366 12.1397C24.2492 12.6239 24.6759 13.2825 24.929 14.0346C25.0057 14.0346 25.0824 14.0346 25.1615 14.0346C25.1615 12.8324 25.1615 11.6302 25.1615 10.3915C22.7832 10.3915 20.4049 10.3915 17.9546 10.3915ZM4.87757 13.6241C4.82842 13.6601 4.77927 13.6961 4.72863 13.7331C4.42103 14.0534 4.31167 14.4527 4.33246 14.8678C4.40159 15.3126 4.59964 15.6943 4.99381 15.9844C5.5099 16.2659 6.01045 16.3752 6.61231 16.2608C7.08218 16.1284 7.4465 15.9117 7.70615 15.5364C7.95138 15.0774 8.00149 14.6037 7.809 14.1212C7.5716 13.6673 7.21416 13.3864 6.68951 13.2096C6.02925 13.0404 5.33068 13.1555 4.87757 13.6241ZM20.2794 13.4189C20.2794 13.4527 20.2794 13.4866 20.2794 13.5215C20.2422 13.5352 20.2051 13.549 20.1668 13.5632C20.0277 13.6183 20.0277 13.6183 19.9888 13.778C19.9504 13.778 19.9121 13.778 19.8725 13.778C19.8347 13.842 19.7973 13.9062 19.7599 13.9704C19.739 14.0062 19.7181 14.0419 19.6966 14.0787C19.5001 14.4604 19.5126 14.9437 19.6728 15.3334C19.9167 15.7956 20.2681 16.0568 20.8025 16.2409C21.3184 16.3808 21.8408 16.3005 22.3136 16.087C22.7309 15.8504 22.9878 15.5113 23.1046 15.0857C23.1904 14.6039 23.1105 14.1777 22.8092 13.7628C22.5248 13.447 22.1599 13.2881 21.7324 13.1623C21.1745 13.1273 20.7714 13.1836 20.2794 13.4189Z"></path>
<path fill="black" d="M7.01198 4.00717C7.08362 4.00669 7.15525 4.00622 7.22905 4.00573C7.42517 4.00449 7.62125 4.00497 7.81737 4.00583C8.02277 4.00652 8.22817 4.00588 8.43357 4.00545C8.77848 4.00496 9.12338 4.00561 9.46829 4.0069C9.86685 4.00838 10.2654 4.0079 10.6639 4.00641C11.0063 4.00517 11.3487 4.005 11.6912 4.00571C11.8956 4.00613 12.1 4.00619 12.3044 4.00529C12.5323 4.00436 12.7601 4.00565 12.988 4.00717C13.0557 4.00662 13.1233 4.00607 13.193 4.0055C13.7016 4.01177 13.7016 4.01177 13.87 4.17176C13.9714 4.32502 14.0007 4.40309 13.9979 4.5853C13.9986 4.6301 13.9993 4.6749 14 4.72106C13.9604 4.86996 13.9068 4.96386 13.7948 5.0703C13.556 5.20563 13.2543 5.1656 12.988 5.16344C12.9164 5.16392 12.8448 5.16439 12.7709 5.16488C12.5748 5.16612 12.3787 5.16564 12.1826 5.16478C11.9772 5.16409 11.7718 5.16473 11.5664 5.16516C11.2215 5.16565 10.8766 5.165 10.5317 5.16371C10.1332 5.16223 9.73463 5.16271 9.33608 5.1642C8.99366 5.16544 8.65126 5.16561 8.30884 5.1649C8.10443 5.16447 7.90003 5.16442 7.69562 5.16532C7.46772 5.16625 7.23988 5.16496 7.01198 5.16344C6.91051 5.16427 6.91051 5.16427 6.80698 5.16511C6.29839 5.15884 6.29839 5.15884 6.13004 4.99885C6.02864 4.84559 5.99927 4.76752 6.00212 4.5853C6.00142 4.54051 6.00072 4.49571 6 4.44955C6.03955 4.30065 6.09322 4.20675 6.20522 4.10031C6.44396 3.96498 6.74568 4.005 7.01198 4.00717Z"></path>
<path fill="black" d="M8.75899 7.00612C8.81271 7.00572 8.86644 7.00531 8.92179 7.00489C9.06888 7.00384 9.21594 7.00424 9.36303 7.00498C9.51708 7.00557 9.67113 7.00502 9.82518 7.00466C10.0839 7.00424 10.3425 7.00479 10.6012 7.0059C10.9001 7.00716 11.199 7.00675 11.4979 7.00547C11.7548 7.00442 12.0116 7.00427 12.2684 7.00488C12.4217 7.00524 12.575 7.00529 12.7283 7.00452C12.8992 7.00373 13.0701 7.00483 13.241 7.00612C13.2918 7.00565 13.3425 7.00518 13.3948 7.0047C13.7762 7.01006 13.7762 7.01006 13.9025 7.14673C13.9785 7.27765 14.0005 7.34434 13.9984 7.5C13.9989 7.53827 13.9995 7.57654 14 7.61597C13.9703 7.74317 13.9301 7.82338 13.8461 7.91431C13.667 8.02991 13.4407 7.99572 13.241 7.99388C13.1873 7.99428 13.1336 7.99469 13.0782 7.99511C12.9311 7.99616 12.7841 7.99576 12.637 7.99502C12.4829 7.99443 12.3289 7.99498 12.1748 7.99534C11.9161 7.99576 11.6575 7.99521 11.3988 7.9941C11.0999 7.99284 10.801 7.99325 10.5021 7.99453C10.2452 7.99558 9.98844 7.99573 9.73163 7.99512C9.57832 7.99476 9.42502 7.99471 9.27171 7.99548C9.10079 7.99627 8.92991 7.99517 8.75899 7.99388C8.68288 7.99458 8.68288 7.99458 8.60524 7.9953C8.22379 7.98994 8.22379 7.98994 8.09753 7.85327C8.02148 7.72235 7.99946 7.65566 8.00159 7.5C8.00107 7.46173 8.00054 7.42346 8 7.38403C8.02966 7.25683 8.06991 7.17662 8.15392 7.08569C8.33297 6.97009 8.55926 7.00428 8.75899 7.00612Z"></path>
</svg>
