<svg xmlns="http://www.w3.org/2000/svg" enable-background="new 0 0 1024 1024" viewBox="0 0 1024 1024" id="shipping">
  <path d="M901.45,497.99l-104.9-149.86c-9.55-13.64-25.19-21.78-41.84-21.78H631.45v-50.64c0-19.82-16.12-35.94-35.94-35.94H151.44
		c-19.82,0-35.94,16.12-35.94,35.94v403.32c0,19.82,16.12,35.94,35.94,35.94h75.03c6.04,39.17,39.97,69.26,80.81,69.26
		c40.83,0,74.77-30.09,80.8-69.26h271.28c6.03,39.17,39.97,69.26,80.8,69.26c40.84,0,74.77-30.09,80.81-69.26h51.59
		c19.82,0,35.94-16.12,35.94-35.94V520.36C908.5,512.31,906.06,504.58,901.45,497.99z M307.28,759.23
		c-31.3,0-56.76-25.46-56.76-56.76s25.46-56.76,56.76-56.76c31.3,0,56.76,25.46,56.76,56.76S338.58,759.23,307.28,759.23z
		 M606.45,689.97H388.09c-0.2-1.28-0.43-2.55-0.69-3.82c-0.08-0.37-0.17-0.74-0.25-1.12c-0.2-0.89-0.39-1.78-0.62-2.66
		c-0.12-0.47-0.25-0.94-0.38-1.4c-0.21-0.78-0.42-1.55-0.66-2.32c-0.15-0.5-0.31-0.99-0.47-1.48c-0.24-0.73-0.48-1.45-0.74-2.17
		c-0.18-0.5-0.37-1-0.56-1.49c-0.26-0.7-0.54-1.4-0.82-2.09c-0.2-0.49-0.41-0.98-0.62-1.47c-0.3-0.69-0.61-1.37-0.93-2.05
		c-0.22-0.47-0.44-0.94-0.67-1.41c-0.34-0.69-0.69-1.36-1.05-2.03c-0.23-0.45-0.46-0.9-0.71-1.34c-0.38-0.7-0.79-1.39-1.19-2.08
		c-0.24-0.39-0.46-0.79-0.7-1.18c-0.48-0.79-0.99-1.56-1.49-2.32c-0.19-0.29-0.36-0.57-0.55-0.85c-0.71-1.05-1.44-2.08-2.2-3.09
		c-0.07-0.1-0.15-0.19-0.23-0.29c-0.68-0.9-1.37-1.79-2.09-2.66c-0.26-0.32-0.53-0.62-0.79-0.93c-0.55-0.65-1.1-1.29-1.66-1.92
		c-0.32-0.35-0.65-0.7-0.98-1.05c-0.53-0.57-1.06-1.13-1.61-1.68c-0.35-0.36-0.72-0.72-1.08-1.07c-0.53-0.52-1.07-1.04-1.62-1.55
		c-0.38-0.35-0.77-0.7-1.16-1.04c-0.55-0.5-1.11-0.98-1.68-1.46c-0.39-0.33-0.8-0.67-1.2-0.99c-0.58-0.47-1.16-0.93-1.75-1.38
		c-0.41-0.32-0.82-0.63-1.23-0.94c-0.62-0.45-1.25-0.89-1.87-1.33c-0.41-0.28-0.81-0.56-1.22-0.84c-0.68-0.45-1.37-0.89-2.07-1.33
		c-0.37-0.23-0.74-0.47-1.11-0.7c-0.87-0.52-1.75-1.02-2.64-1.52c-0.21-0.11-0.42-0.24-0.64-0.36c-1.11-0.6-2.23-1.18-3.37-1.73
		c-0.3-0.14-0.6-0.27-0.89-0.41c-0.85-0.4-1.7-0.79-2.57-1.16c-0.43-0.19-0.87-0.35-1.3-0.53c-0.75-0.3-1.49-0.6-2.24-0.89
		c-0.49-0.18-0.98-0.34-1.47-0.51c-0.71-0.26-1.43-0.51-2.16-0.74c-0.51-0.16-1.03-0.32-1.55-0.47c-0.71-0.21-1.43-0.42-2.16-0.62
		c-0.53-0.14-1.06-0.27-1.59-0.41c-0.73-0.18-1.46-0.34-2.19-0.5c-0.54-0.12-1.08-0.24-1.62-0.34c-0.75-0.15-1.5-0.28-2.26-0.41
		c-0.54-0.09-1.07-0.18-1.61-0.26c-0.79-0.11-1.58-0.21-2.38-0.3c-0.51-0.06-1.02-0.13-1.54-0.18c-0.88-0.08-1.76-0.14-2.65-0.2
		c-0.44-0.03-0.88-0.07-1.32-0.09c-1.33-0.07-2.66-0.1-4.01-0.1c-1.35,0-2.69,0.03-4.02,0.1c-0.44,0.02-0.87,0.06-1.31,0.09
		c-0.89,0.06-1.78,0.12-2.66,0.2c-0.51,0.05-1.02,0.12-1.54,0.18c-0.79,0.09-1.59,0.19-2.37,0.3c-0.54,0.08-1.08,0.17-1.61,0.26
		c-0.76,0.13-1.51,0.26-2.26,0.41c-0.54,0.1-1.08,0.22-1.62,0.34c-0.73,0.16-1.46,0.32-2.19,0.5c-0.53,0.14-1.07,0.27-1.6,0.41
		c-0.72,0.2-1.44,0.41-2.16,0.62c-0.51,0.15-1.03,0.31-1.54,0.47c-0.73,0.23-1.45,0.48-2.17,0.74c-0.49,0.17-0.97,0.33-1.46,0.51
		c-0.75,0.29-1.5,0.59-2.25,0.89c-0.43,0.18-0.86,0.34-1.29,0.53c-0.87,0.37-1.73,0.77-2.58,1.17c-0.29,0.13-0.59,0.26-0.88,0.4
		c-1.14,0.55-2.27,1.13-3.38,1.73c-0.21,0.12-0.41,0.24-0.62,0.36c-0.89,0.49-1.78,1-2.65,1.53c-0.38,0.22-0.74,0.46-1.11,0.69
		c-0.7,0.44-1.39,0.88-2.08,1.33c-0.4,0.28-0.8,0.56-1.2,0.84c-0.63,0.44-1.26,0.88-1.88,1.34c-0.41,0.3-0.82,0.61-1.22,0.92
		c-0.6,0.46-1.18,0.92-1.76,1.39c-0.41,0.32-0.81,0.66-1.2,0.99c-0.57,0.48-1.13,0.97-1.69,1.46c-0.38,0.34-0.77,0.69-1.15,1.04
		c-0.55,0.51-1.09,1.03-1.63,1.55c-0.36,0.36-0.72,0.71-1.07,1.07c-0.55,0.55-1.08,1.11-1.61,1.68c-0.33,0.35-0.66,0.7-0.98,1.05
		c-0.56,0.63-1.11,1.27-1.66,1.92c-0.26,0.31-0.53,0.61-0.79,0.93c-0.72,0.87-1.41,1.76-2.09,2.66c-0.08,0.1-0.16,0.19-0.23,0.29
		c-0.76,1.01-1.49,2.04-2.2,3.09c-0.19,0.28-0.36,0.56-0.55,0.85c-0.51,0.76-1.01,1.53-1.49,2.32c-0.24,0.39-0.46,0.79-0.7,1.18
		c-0.4,0.69-0.81,1.38-1.2,2.08c-0.24,0.44-0.47,0.89-0.71,1.34c-0.35,0.67-0.7,1.34-1.04,2.03c-0.23,0.47-0.45,0.94-0.67,1.42
		c-0.32,0.67-0.63,1.35-0.93,2.04c-0.21,0.49-0.42,0.98-0.62,1.47c-0.29,0.69-0.56,1.39-0.83,2.08c-0.18,0.5-0.37,1-0.55,1.5
		c-0.26,0.72-0.5,1.44-0.73,2.16c-0.17,0.5-0.33,0.99-0.48,1.49c-0.24,0.77-0.45,1.53-0.66,2.31c-0.13,0.47-0.27,0.94-0.39,1.41
		c-0.22,0.87-0.41,1.75-0.6,2.63c-0.09,0.39-0.19,0.77-0.26,1.16c-0.26,1.26-0.49,2.53-0.69,3.81h-75.03
		c-6.03,0-10.94-4.91-10.94-10.94V275.71c0-6.03,4.91-10.94,10.94-10.94h444.07c6.04,0,10.94,4.91,10.94,10.94V689.97z
		 M631.45,351.35h123.26c8.5,0,16.48,4.15,21.36,11.12l95.92,137.03H631.45V351.35z M740.16,759.23c-31.3,0-56.76-25.46-56.76-56.76
		s25.46-56.76,56.76-56.76c31.3,0,56.76,25.46,56.76,56.76S771.46,759.23,740.16,759.23z M883.5,603.39h-22.13v25h22.13v50.64
		c0,6.03-4.91,10.94-10.94,10.94h-51.59c-0.2-1.28-0.43-2.55-0.68-3.81c-0.09-0.4-0.19-0.8-0.27-1.2c-0.19-0.86-0.38-1.73-0.6-2.58
		c-0.12-0.49-0.26-0.96-0.39-1.44c-0.21-0.77-0.42-1.53-0.65-2.28c-0.16-0.51-0.32-1.01-0.49-1.51c-0.23-0.72-0.47-1.43-0.72-2.14
		c-0.19-0.51-0.38-1.01-0.57-1.52c-0.26-0.69-0.53-1.38-0.81-2.06c-0.21-0.5-0.42-1-0.63-1.49c-0.3-0.68-0.61-1.35-0.92-2.02
		c-0.23-0.48-0.45-0.96-0.68-1.44c-0.34-0.68-0.69-1.35-1.04-2.01c-0.24-0.45-0.47-0.91-0.72-1.35c-0.38-0.7-0.78-1.38-1.18-2.07
		c-0.24-0.4-0.47-0.8-0.71-1.2c-0.48-0.77-0.97-1.53-1.47-2.29c-0.2-0.29-0.38-0.59-0.57-0.88c-0.71-1.04-1.44-2.07-2.19-3.08
		c-0.09-0.11-0.18-0.21-0.26-0.33c-0.67-0.88-1.36-1.76-2.07-2.62c-0.26-0.32-0.53-0.63-0.8-0.95c-0.54-0.64-1.09-1.27-1.65-1.9
		c-0.32-0.36-0.66-0.7-0.98-1.06c-0.53-0.56-1.06-1.12-1.6-1.67c-0.36-0.36-0.73-0.72-1.09-1.07c-0.53-0.52-1.07-1.04-1.62-1.55
		c-0.38-0.35-0.77-0.7-1.16-1.05c-0.55-0.49-1.11-0.97-1.67-1.44c-0.4-0.34-0.8-0.68-1.21-1.01c-0.58-0.46-1.16-0.92-1.75-1.37
		c-0.41-0.32-0.82-0.63-1.23-0.94c-0.62-0.45-1.24-0.89-1.87-1.32c-0.4-0.29-0.8-0.57-1.21-0.85c-0.68-0.45-1.38-0.89-2.07-1.32
		c-0.37-0.24-0.74-0.48-1.12-0.71c-0.86-0.52-1.74-1.02-2.62-1.51c-0.22-0.12-0.43-0.25-0.65-0.37c-1.11-0.6-2.24-1.18-3.38-1.73
		c-0.3-0.14-0.6-0.27-0.89-0.41c-0.85-0.4-1.7-0.79-2.57-1.16c-0.43-0.19-0.87-0.35-1.3-0.53c-0.74-0.3-1.49-0.6-2.24-0.89
		c-0.48-0.18-0.97-0.34-1.46-0.52c-0.72-0.25-1.44-0.5-2.17-0.73c-0.51-0.16-1.03-0.32-1.54-0.47c-0.72-0.22-1.44-0.42-2.16-0.62
		c-0.53-0.14-1.07-0.27-1.6-0.41c-0.73-0.18-1.46-0.34-2.19-0.5c-0.54-0.12-1.08-0.24-1.62-0.34c-0.75-0.15-1.5-0.28-2.26-0.41
		c-0.53-0.09-1.07-0.18-1.61-0.26c-0.78-0.11-1.58-0.21-2.37-0.3c-0.52-0.06-1.03-0.13-1.54-0.18c-0.88-0.08-1.77-0.14-2.66-0.2
		c-0.44-0.03-0.87-0.07-1.31-0.09c-1.33-0.07-2.67-0.1-4.02-0.1c-1.34,0-2.68,0.03-4.01,0.1c-0.44,0.02-0.88,0.06-1.32,0.09
		c-0.89,0.06-1.77,0.12-2.65,0.2c-0.52,0.05-1.03,0.12-1.54,0.18c-0.8,0.09-1.59,0.19-2.38,0.3c-0.54,0.08-1.07,0.17-1.61,0.26
		c-0.75,0.13-1.51,0.26-2.25,0.41c-0.55,0.1-1.09,0.22-1.63,0.34c-0.73,0.16-1.46,0.32-2.18,0.5c-0.54,0.14-1.07,0.27-1.6,0.41
		c-0.73,0.2-1.45,0.4-2.16,0.62c-0.52,0.15-1.04,0.31-1.55,0.47c-0.73,0.23-1.44,0.48-2.16,0.73c-0.49,0.18-0.98,0.34-1.47,0.52
		c-0.75,0.29-1.49,0.59-2.23,0.89c-0.44,0.18-0.88,0.34-1.31,0.53c-0.86,0.37-1.71,0.76-2.56,1.16c-0.3,0.14-0.6,0.27-0.9,0.41
		c-1.14,0.55-2.26,1.13-3.37,1.73c-0.22,0.12-0.43,0.25-0.65,0.37c-0.89,0.49-1.76,0.99-2.63,1.51c-0.37,0.23-0.74,0.47-1.11,0.71
		c-0.7,0.43-1.39,0.87-2.07,1.32c-0.41,0.28-0.81,0.56-1.22,0.84c-0.62,0.44-1.25,0.88-1.86,1.33c-0.42,0.31-0.83,0.62-1.24,0.94
		c-0.59,0.45-1.17,0.91-1.75,1.37c-0.4,0.33-0.81,0.67-1.21,1.01c-0.56,0.47-1.12,0.95-1.67,1.44c-0.39,0.35-0.77,0.7-1.16,1.05
		c-0.55,0.51-1.08,1.03-1.62,1.55c-0.36,0.35-0.73,0.71-1.08,1.07c-0.55,0.55-1.08,1.11-1.61,1.68c-0.32,0.35-0.65,0.7-0.98,1.05
		c-0.56,0.63-1.11,1.27-1.65,1.91c-0.27,0.32-0.54,0.62-0.8,0.94c-0.71,0.87-1.4,1.75-2.08,2.65c-0.08,0.1-0.16,0.2-0.24,0.3
		c-0.76,1.01-1.49,2.04-2.2,3.09c-0.19,0.28-0.36,0.56-0.55,0.85c-0.5,0.76-1,1.53-1.49,2.32c-0.24,0.39-0.46,0.79-0.69,1.18
		c-0.41,0.69-0.82,1.38-1.2,2.08c-0.25,0.44-0.48,0.89-0.71,1.34c-0.36,0.67-0.71,1.34-1.05,2.03c-0.23,0.47-0.45,0.94-0.67,1.41
		c-0.32,0.68-0.63,1.36-0.93,2.05c-0.21,0.49-0.42,0.98-0.62,1.47c-0.28,0.69-0.56,1.39-0.82,2.09c-0.19,0.49-0.38,0.99-0.56,1.49
		c-0.26,0.72-0.5,1.44-0.73,2.17c-0.16,0.49-0.33,0.98-0.48,1.48c-0.23,0.77-0.45,1.54-0.66,2.32c-0.13,0.46-0.26,0.93-0.38,1.4
		c-0.23,0.88-0.42,1.77-0.62,2.66c-0.08,0.38-0.17,0.75-0.25,1.12c-0.26,1.27-0.49,2.54-0.69,3.82h-27.9V524.5H883.5V603.39z"></path>
  <rect width="259.73" height="25" x="238.02" y="378.29"></rect>
  <rect width="103.89" height="25" x="393.86" y="482.18"></rect>
  <path d="M764.34,702.47c0,13.33-10.85,24.18-24.18,24.18c-13.33,0-24.17-10.85-24.17-24.18c0-13.33,10.84-24.18,24.17-24.18
		C753.49,678.29,764.34,689.14,764.34,702.47z"></path>
  <circle cx="307.28" cy="702.47" r="22.58" transform="rotate(-73.154 307.291 702.467)"></circle>
</svg>
