<svg xmlns="http://www.w3.org/2000/svg" fill="none" viewBox="0 0 17 21" height="21" width="17">
<g clip-path="url(#clip0_1721_61)">
<path fill="black" d="M9.41119 0.279492C9.49108 0.316116 9.57097 0.352749 9.65085 0.389392C9.73494 0.427038 9.81908 0.464573 9.90325 0.502004C10.0742 0.578133 10.245 0.654722 10.4157 0.731674C10.7317 0.873827 11.0499 1.01056 11.3683 1.14677C11.532 1.21686 11.6956 1.2874 11.8591 1.35792C11.9086 1.37924 11.9086 1.37924 11.959 1.40099C12.4171 1.59849 12.8749 1.79703 13.3326 1.99547C13.8279 2.21018 14.3234 2.42433 14.8192 2.63759C15.0502 2.73698 15.2812 2.83673 15.512 2.93656C15.6877 3.01245 15.8636 3.08759 16.0398 3.16226C16.1139 3.19414 16.188 3.22604 16.2621 3.25796C16.293 3.27079 16.3239 3.28362 16.3557 3.29683C16.5914 3.39953 16.7838 3.53121 16.9277 3.75427C17.0093 3.97143 17.0003 4.17448 16.9991 4.40565C16.9994 4.48141 16.9994 4.48141 16.9997 4.5587C17.0001 4.69704 17 4.83535 16.9997 4.97369C16.9994 5.11963 16.9997 5.26556 16.9998 5.4115C17.0001 5.65742 16.9998 5.90333 16.9992 6.14924C16.9986 6.43068 16.9988 6.71211 16.9994 6.99354C17 7.23697 17 7.4804 16.9997 7.72382C16.9995 7.86837 16.9995 8.01291 16.9999 8.15745C17.0021 9.06342 16.9502 9.95814 16.7776 10.8479C16.7694 10.8911 16.7611 10.9343 16.7527 10.9788C16.4584 12.4681 15.9278 13.9093 15.177 15.2146C15.159 15.246 15.141 15.2774 15.1224 15.3097C14.8427 15.7929 14.5332 16.244 14.195 16.6846C14.1635 16.7261 14.1319 16.7677 14.0994 16.8105C13.9114 17.054 13.7118 17.2843 13.5068 17.5125C13.4446 17.5836 13.3844 17.6567 13.327 17.7321C13.2591 17.8192 13.1927 17.8869 13.1099 17.9581C12.983 18.0706 12.8655 18.1887 12.749 18.3129C12.5488 18.5222 12.3375 18.7091 12.1132 18.8896C12.0855 18.912 12.0579 18.9344 12.0294 18.9575C9.38819 21.0851 9.38819 21.0851 8.31669 20.9521C7.95282 20.87 7.61098 20.6564 7.28181 20.4822C7.21501 20.4476 7.14822 20.4131 7.08142 20.3786C6.15691 19.8934 5.31 19.2719 4.53224 18.563C4.50257 18.5366 4.4729 18.5103 4.44233 18.4832C4.27848 18.3372 4.1259 18.1827 3.97466 18.0227C3.90162 17.9456 3.90162 17.9456 3.80312 17.8688C3.69178 17.7738 3.60404 17.6683 3.51082 17.5546C3.42656 17.4534 3.33878 17.3564 3.25075 17.2588C2.98998 16.9611 2.75918 16.6406 2.52899 16.3171C2.50881 16.289 2.48864 16.2609 2.46786 16.2319C2.1571 15.7965 1.89084 15.342 1.63996 14.867C1.59117 14.7747 1.54163 14.6829 1.49192 14.5911C0.554989 12.8367 0.0106025 10.7203 0.0087686 8.71472C0.00857358 8.66288 0.00837857 8.61103 0.00817764 8.55761C0.00766774 8.41682 0.00740991 8.27603 0.00723425 8.13523C0.0071184 8.04709 0.00695762 7.95895 0.00678293 7.87082C0.00624769 7.59449 0.00586671 7.31817 0.00571428 7.04184C0.00553779 6.72379 0.00484508 6.40574 0.00371062 6.08769C0.00286134 5.84097 0.00246553 5.59426 0.00241301 5.34755C0.00237192 5.20052 0.00214177 5.0535 0.00143846 4.90648C0.00067029 4.74277 0.000841505 4.57908 0.00109682 4.41537C0.000734872 4.36694 0.00037292 4.31851 0 4.26861C0.00132528 3.99782 0.0168764 3.80469 0.188624 3.58857C0.391764 3.40639 0.615203 3.30657 0.862062 3.20182C0.908848 3.18146 0.955633 3.16111 1.00384 3.14014C1.1403 3.08082 1.27706 3.02225 1.41387 2.9638C1.5498 2.90563 1.68559 2.8471 1.82139 2.78861C2.16853 2.63908 2.51587 2.49004 2.86332 2.34128C3.25392 2.174 3.64404 2.00559 4.03388 1.83644C4.52954 1.62143 5.02545 1.40708 5.52159 1.19331C5.55473 1.17903 5.58787 1.16475 5.62201 1.15004C5.93559 1.01491 6.24919 0.879839 6.56279 0.744773C6.74879 0.664663 6.93478 0.584538 7.12077 0.504404C7.22539 0.459334 7.33003 0.414284 7.43466 0.369234C7.49878 0.341607 7.56291 0.313979 7.62704 0.28635C7.65573 0.274004 7.68442 0.261657 7.71398 0.248936C7.74107 0.237261 7.76816 0.225585 7.79606 0.213556C7.82193 0.202467 7.8478 0.191378 7.87445 0.179953C7.94771 0.147754 8.02006 0.113341 8.09236 0.0788819C8.56172 -0.11447 8.97735 0.084606 9.41119 0.279492ZM8.04576 1.91667C8.01301 1.93109 7.98025 1.94551 7.9465 1.96036C7.83852 2.00799 7.73079 2.0562 7.62305 2.10441C7.54702 2.13803 7.47097 2.1716 7.39491 2.20513C7.23781 2.27438 7.08077 2.34381 6.92378 2.41333C6.61048 2.55182 6.29599 2.68728 5.98136 2.82245C5.84828 2.87963 5.71524 2.93693 5.5822 2.99422C5.4822 3.03728 5.3822 3.08032 5.2822 3.12336C4.98051 3.25321 4.6789 3.38326 4.37729 3.51329C4.21137 3.58482 4.04545 3.65635 3.87953 3.72787C3.84659 3.74207 3.81365 3.75627 3.77971 3.7709C3.56498 3.86345 3.35024 3.95597 3.13549 4.04846C2.98706 4.11239 2.83864 4.17633 2.69022 4.24028C2.61949 4.27074 2.54877 4.3012 2.47804 4.33165C2.37994 4.37389 2.28185 4.41615 2.18376 4.45841C2.15507 4.47076 2.12637 4.4831 2.09681 4.49582C2.05618 4.51334 2.05618 4.51334 2.01473 4.53121C1.99159 4.54117 1.96844 4.55114 1.9446 4.56141C1.82488 4.6137 1.7056 4.66706 1.58628 4.72032C1.58536 5.15594 1.58466 5.59156 1.58424 6.02718C1.58404 6.22957 1.58377 6.43196 1.58331 6.63434C1.56258 8.15111 1.56258 8.15111 1.67466 9.66121C1.67971 9.701 1.68476 9.74079 1.68996 9.78179C1.87658 11.1797 2.27651 12.5414 2.92178 13.7854C2.94424 13.8293 2.94424 13.8293 2.96716 13.8741C3.67241 15.2489 4.64859 16.5324 5.82846 17.5013C5.87339 17.5398 5.91824 17.5784 5.96303 17.6171C7.1531 18.6578 7.1531 18.6578 8.54412 19.1748C8.76126 19.1173 8.94761 19.016 9.14513 18.9075C9.18795 18.8841 9.23077 18.8608 9.2749 18.8367C10.049 18.4051 10.7894 17.8782 11.4359 17.2587C11.5121 17.186 11.5898 17.1163 11.6688 17.047C12.0757 16.6773 12.4497 16.2707 12.7809 15.8271C12.8154 15.7826 12.8499 15.7383 12.8845 15.6939C14.9707 13.0044 15.4228 9.86414 15.4154 6.51494C15.415 6.31204 15.4148 6.10915 15.4146 5.90626C15.4142 5.51094 15.4135 5.11563 15.4127 4.72032C14.509 4.3264 13.605 3.93355 12.6997 3.54381C12.2683 3.35807 11.8371 3.17175 11.4062 2.98489C10.8147 2.72844 10.2228 2.47307 9.63075 2.21806C9.58219 2.19713 9.58219 2.19713 9.53265 2.17578C9.4699 2.14876 9.40714 2.12181 9.34434 2.09491C9.21085 2.03765 9.078 1.97958 8.94582 1.9191C8.90465 1.90035 8.86348 1.8816 8.82107 1.86228C8.78679 1.84623 8.75251 1.83018 8.7172 1.81365C8.46301 1.72876 8.27837 1.81126 8.04576 1.91667Z"></path>
<path fill="black" d="M12.239 7.35807C12.4125 7.50856 12.5034 7.64832 12.5359 7.8783C12.5478 8.20874 12.4882 8.4518 12.2728 8.70755C12.1693 8.81723 12.0634 8.92397 11.9563 9.03014C11.9156 9.07111 11.8748 9.11211 11.8342 9.15314C11.7242 9.26385 11.6137 9.37403 11.5031 9.48411C11.3871 9.59972 11.2715 9.71574 11.1558 9.83169C10.9615 10.0263 10.7668 10.2206 10.572 10.4146C10.3472 10.6385 10.123 10.863 9.89904 11.0879C9.70629 11.2814 9.51323 11.4745 9.31989 11.6674C9.20463 11.7824 9.08949 11.8975 8.97463 12.0129C8.86659 12.1215 8.75816 12.2296 8.64942 12.3374C8.5909 12.3956 8.53277 12.4542 8.47467 12.5128C8.20956 12.7744 7.96894 12.9818 7.578 12.9847C7.53576 12.9861 7.49351 12.9875 7.44999 12.9889C7.02079 12.8983 6.70492 12.4963 6.40697 12.1966C6.35642 12.1462 6.30584 12.0957 6.25525 12.0453C6.14981 11.94 6.04459 11.8345 5.93953 11.7289C5.80531 11.594 5.67054 11.4596 5.5356 11.3254C5.43125 11.2215 5.32721 11.1173 5.22325 11.013C5.17367 10.9634 5.12401 10.9138 5.07426 10.8643C5.00468 10.7951 4.93551 10.7254 4.86644 10.6557C4.84613 10.6356 4.82582 10.6156 4.8049 10.5949C4.58866 10.3747 4.45527 10.1626 4.45312 9.84705C4.46207 9.56664 4.52293 9.38283 4.72485 9.18567C4.93421 9.01493 5.15415 9.00268 5.41699 8.99982C5.79167 9.06351 6.01809 9.30829 6.27319 9.56955C6.31005 9.60665 6.34692 9.64374 6.38489 9.68196C6.48202 9.77984 6.57878 9.87807 6.67537 9.97648C6.77433 10.0771 6.87378 10.1773 6.97318 10.2776C7.16754 10.4737 7.36141 10.6703 7.55493 10.8673C7.68302 10.8105 7.76947 10.7448 7.86786 10.6454C7.89672 10.6165 7.92558 10.5876 7.95532 10.5578C7.98656 10.5261 8.0178 10.4943 8.04998 10.4617C8.08322 10.4282 8.11645 10.3948 8.15069 10.3604C8.22284 10.2878 8.2949 10.2151 8.36688 10.1423C8.48081 10.0271 8.59501 9.91225 8.70929 9.79744C8.99313 9.51219 9.2766 9.22657 9.55986 8.94075C9.79912 8.69932 10.0386 8.45813 10.2785 8.21729C10.3542 8.14116 10.4298 8.0649 10.5052 7.98853C10.6108 7.88171 10.7167 7.77527 10.8227 7.6689C10.8693 7.62144 10.8693 7.62144 10.9169 7.57301C11.2959 7.19461 11.7665 7.02446 12.239 7.35807Z"></path>
</g>
<defs>
<clipPath id="clip0_1721_61">
<rect fill="white" height="21" width="17"></rect>
</clipPath>
</defs>
</svg>
